<?xml version="1.0" standalone="no"?>
<!DOCTYPE svg PUBLIC "-//W3C//DTD SVG 20010904//EN"
 "http://www.w3.org/TR/2001/REC-SVG-20010904/DTD/svg10.dtd">
<svg version="1.0" xmlns="http://www.w3.org/2000/svg"
 width="280.000000pt" height="280.000000pt" viewBox="0 0 280.000000 280.000000"
 preserveAspectRatio="xMidYMid meet">
<metadata>
Created by potrace 1.14, written by Peter Selinger 2001-2017
</metadata>
<g transform="translate(0.000000,280.000000) scale(0.100000,-0.100000)"
fill="#000000" stroke="none">
<path d="M0 1400 l0 -740 1400 0 1400 0 0 740 0 740 -387 0 c-355 0 -385 -2
-357 -16 17 -8 48 -32 69 -54 l38 -39 -58 -91 c-31 -50 -62 -89 -67 -88 -5 2
-35 44 -67 93 -52 79 -57 92 -48 115 16 36 46 68 71 73 11 2 -432 5 -986 6
l-1008 1 0 -740z m831 710 c10 -6 28 -28 38 -49 l20 -38 -60 -92 c-32 -51 -64
-91 -70 -89 -6 2 -36 44 -67 92 l-57 89 55 48 c56 51 97 62 141 39z m1117
-226 c29 -44 52 -84 52 -88 0 -11 -110 -146 -119 -146 -3 0 -27 33 -52 73
l-46 73 28 44 c15 24 38 66 50 92 12 27 25 45 29 41 3 -5 30 -44 58 -89z
m-938 -105 c0 -13 -84 -139 -92 -139 -9 0 -118 134 -118 145 0 4 26 48 57 96
l57 89 48 -92 c26 -50 48 -95 48 -99z m790 -105 l43 -65 -65 -66 -65 -65 -36
57 c-30 48 -34 61 -24 74 36 49 100 131 102 131 1 0 22 -30 45 -66z m-691 -26
l51 -67 -36 -57 c-35 -55 -36 -55 -57 -38 -45 38 -107 98 -107 106 0 17 84
138 90 131 5 -4 31 -38 59 -75z m532 -149 l33 -52 -30 -23 c-16 -13 -48 -38
-71 -54 l-42 -30 -25 37 c-15 21 -26 42 -26 48 0 11 110 125 121 125 4 0 22
-23 40 -51z m-321 -84 c0 -6 -11 -27 -26 -48 l-25 -38 -59 42 c-86 60 -86 59
-50 118 l32 51 64 -58 c35 -31 64 -62 64 -67z m119 -77 c36 -23 67 -43 69 -44
4 -2 -39 -74 -45 -74 -11 0 -143 75 -143 82 0 11 41 78 48 78 3 0 35 -19 71
-42z m159 -87 c20 -10 56 -24 78 -31 l42 -13 -20 -33 -19 -33 -42 14 c-103 33
-117 39 -117 48 0 9 32 67 38 67 1 0 19 -8 40 -19z m1063 -55 c-24 -25 -51
-39 -97 -52 -36 -9 -66 -15 -68 -13 -2 2 6 16 19 31 20 23 88 50 174 67 3 1
-10 -14 -28 -33z m-800 -28 l68 -12 -17 -28 c-9 -15 -24 -28 -32 -28 -21 0
-133 21 -142 26 -13 8 26 64 41 59 8 -3 45 -11 82 -17z m568 -27 c-25 -34 -38
-38 -138 -47 l-73 -7 16 31 c14 28 22 32 59 33 23 0 60 4 82 8 75 16 78 15 54
-18z m-251 -6 c1 -1 -3 -14 -9 -29 -11 -23 -18 -26 -63 -26 -28 0 -74 3 -103
6 l-52 7 14 28 15 27 97 -5 c54 -3 99 -7 101 -8z"/>
</g>
</svg>
